<svg width="443" height="183" viewBox="0 0 443 183" fill="none" xmlns="http://www.w3.org/2000/svg">
<path d="M0 170.353H2.0983V177.76H5.85452V179.502H0V170.353Z" fill="#5C1033"/>
<path d="M10.0729 179.708C8.96763 179.708 8.13868 179.397 7.58604 178.775C7.0334 178.153 6.75708 177.23 6.75708 176.004C6.75708 174.724 7.02908 173.791 7.57308 173.206C8.12572 172.621 8.95899 172.328 10.0729 172.328C11.1868 172.328 12.0244 172.63 12.5857 173.233C13.147 173.828 13.4276 174.751 13.4276 176.004C13.4276 177.212 13.1383 178.131 12.5598 178.762C11.9812 179.393 11.1523 179.708 10.0729 179.708ZM10.0729 178.076C10.5478 178.076 10.9062 177.902 11.148 177.554C11.3897 177.198 11.5106 176.681 11.5106 176.004C11.5106 175.264 11.3897 174.738 11.148 174.427C10.9148 174.107 10.5565 173.947 10.0729 173.947C9.57208 173.947 9.20941 174.107 8.9849 174.427C8.76903 174.738 8.6611 175.264 8.6611 176.004C8.6611 176.709 8.77335 177.23 8.99786 177.568C9.231 177.907 9.58935 178.076 10.0729 178.076Z" fill="#5C1033"/>
<path d="M21.4613 172.369C23.4214 172.369 24.4015 173.014 24.4015 174.303V182.177H22.5104V179.297C22.1132 179.571 21.5951 179.708 20.9561 179.708C19.9976 179.708 19.2594 179.402 18.7413 178.789C18.2232 178.176 17.9641 177.303 17.9641 176.169C17.9641 174.806 18.2707 173.832 18.8837 173.247C19.4968 172.662 20.356 172.369 21.4613 172.369ZM19.8811 176.045C19.8811 176.741 20.0192 177.253 20.2956 177.582C20.5805 177.902 20.9604 178.062 21.4354 178.062C21.8498 178.062 22.2082 177.966 22.5104 177.774V174.701C22.5104 174.5 22.4068 174.344 22.1996 174.235C21.9923 174.125 21.7376 174.07 21.4354 174.07C20.8914 174.07 20.4942 174.244 20.2437 174.591C20.002 174.93 19.8811 175.414 19.8811 176.045Z" fill="#5C1033"/>
<path d="M29.2011 179.708C28.2426 179.708 27.487 179.47 26.9344 178.995C26.3904 178.519 26.1184 177.806 26.1184 176.855V172.561H28.0483V176.69C28.0483 177.129 28.139 177.458 28.3203 177.678C28.5103 177.888 28.8082 177.993 29.2141 177.993C29.6199 177.993 29.9135 177.888 30.0948 177.678C30.2848 177.458 30.3798 177.129 30.3798 176.69V172.561H32.1931V176.855C32.1931 177.815 31.9297 178.533 31.403 179.009C30.8849 179.475 30.1509 179.708 29.2011 179.708Z" fill="#5C1033"/>
<path d="M36.8116 172.328C38.8581 172.328 39.8684 173.741 39.8425 176.567H35.5164C35.6804 177.527 36.2892 178.007 37.3427 178.007C37.6622 178.007 37.973 177.961 38.2753 177.87C38.5861 177.769 38.9142 177.641 39.2596 177.486V179.242C38.5516 179.553 37.7572 179.708 36.8764 179.708C36.2115 179.708 35.6286 179.566 35.1278 179.283C34.627 178.99 34.2384 178.574 33.9621 178.035C33.6858 177.495 33.5476 176.859 33.5476 176.128C33.5476 174.921 33.8282 173.988 34.3895 173.329C34.9594 172.662 35.7668 172.328 36.8116 172.328ZM36.7339 173.892C36.0431 173.892 35.633 174.349 35.5034 175.264H37.9255C37.8651 174.77 37.7399 174.418 37.5499 174.207C37.3686 173.997 37.0966 173.892 36.7339 173.892Z" fill="#5C1033"/>
<path d="M52.2236 172.369C53.1389 172.369 53.8167 172.561 54.2571 172.945C54.6975 173.32 54.9177 173.951 54.9177 174.838V179.502H52.9878V175.25C52.9878 174.454 52.5646 174.056 51.7184 174.056C51.3644 174.056 51.0665 174.143 50.8247 174.317C50.842 174.537 50.8506 174.71 50.8506 174.838V179.502H48.9207V175.25C48.9207 174.454 48.4976 174.056 47.6513 174.056C47.3059 174.056 46.9864 174.134 46.6929 174.29V179.502H44.7629V173.151C45.0997 172.959 45.6135 172.781 46.3043 172.616C46.9951 172.451 47.6125 172.369 48.1565 172.369C49.0286 172.369 49.6719 172.534 50.0864 172.863C50.4232 172.708 50.7772 172.589 51.1485 172.506C51.5284 172.415 51.8868 172.369 52.2236 172.369Z" fill="#5C1033"/>
<path d="M59.49 172.355C60.2067 172.355 60.8587 172.534 61.4459 172.89C62.033 173.238 62.3266 173.869 62.3266 174.784L62.3137 178.062C62.305 178.638 62.033 179.059 61.4977 179.324C60.9623 179.58 60.1808 179.708 59.1533 179.708C57.2363 179.708 56.2778 178.917 56.2778 177.335C56.2778 176.667 56.4721 176.146 56.8607 175.771C57.2579 175.396 57.8451 175.209 58.6222 175.209C58.9417 175.209 59.2612 175.254 59.5807 175.346C59.9002 175.428 60.1765 175.538 60.4097 175.675V175.236C60.4097 174.441 59.9261 174.043 58.959 174.043C58.5877 174.043 58.2034 174.116 57.8062 174.262C57.4176 174.399 57.1068 174.569 56.8737 174.77V172.959C57.1068 172.794 57.4608 172.653 57.9357 172.534C58.4193 172.415 58.9374 172.355 59.49 172.355ZM59.218 178.268C59.6671 178.268 59.9779 178.236 60.1506 178.172C60.3233 178.108 60.4097 177.98 60.4097 177.788V176.718C60.1074 176.608 59.775 176.553 59.4123 176.553C58.9892 176.553 58.6784 176.622 58.4797 176.759C58.2898 176.887 58.1948 177.093 58.1948 177.376C58.1948 177.641 58.2941 177.856 58.4927 178.021C58.6999 178.186 58.9417 178.268 59.218 178.268Z" fill="#5C1033"/>
<path d="M65.9826 179.708C65.5682 179.708 65.2055 179.662 64.8946 179.571C64.5838 179.489 64.2384 179.365 63.8584 179.201V177.404C64.5579 177.961 65.2919 178.24 66.0604 178.24C66.354 178.24 66.5655 178.19 66.695 178.089C66.8332 177.98 66.9023 177.833 66.9023 177.651C66.9023 177.44 66.7943 177.285 66.5785 177.184C66.3626 177.084 66.0172 176.974 65.5423 176.855C65.0414 176.745 64.627 176.526 64.2988 176.196C63.9793 175.867 63.8196 175.387 63.8196 174.756C63.8196 174.216 63.9491 173.773 64.2082 173.425C64.4672 173.078 64.791 172.826 65.1796 172.671C65.5768 172.506 65.987 172.424 66.4101 172.424C66.9282 172.424 67.347 172.474 67.6665 172.575C67.9946 172.666 68.3141 172.813 68.625 173.014V174.619C68.1846 174.363 67.8435 174.18 67.6017 174.07C67.3599 173.96 67.0793 173.906 66.7598 173.906C66.4403 173.906 66.2028 173.96 66.0474 174.07C65.892 174.171 65.8143 174.317 65.8143 174.509C65.8143 174.738 65.9006 174.907 66.0733 175.017C66.246 175.117 66.5223 175.222 66.9023 175.332C67.334 175.451 67.6751 175.57 67.9255 175.689C68.1759 175.799 68.4004 175.995 68.5991 176.279C68.7977 176.553 68.897 176.942 68.897 177.445C68.8797 178.231 68.5991 178.807 68.0551 179.173C67.511 179.53 66.8202 179.708 65.9826 179.708Z" fill="#5C1033"/>
<path d="M76.9381 179.708C75.9797 179.708 75.2241 179.47 74.6715 178.995C74.1275 178.519 73.8555 177.806 73.8555 176.855V172.561H75.7854V176.69C75.7854 177.129 75.8761 177.458 76.0574 177.678C76.2474 177.888 76.5453 177.993 76.9511 177.993C77.3569 177.993 77.6505 177.888 77.8319 177.678C78.0218 177.458 78.1168 177.129 78.1168 176.69V172.561H79.9302V176.855C79.9302 177.815 79.6668 178.533 79.1401 179.009C78.622 179.475 77.888 179.708 76.9381 179.708Z" fill="#5C1033"/>
<path d="M81.6472 173.151C81.984 172.959 82.4978 172.781 83.1886 172.616C83.8794 172.451 84.4968 172.369 85.0408 172.369C85.9647 172.369 86.6598 172.561 87.1261 172.945C87.5924 173.329 87.8255 173.96 87.8255 174.838V179.502H85.8956V175.25C85.8956 174.454 85.4725 174.056 84.6263 174.056C84.4363 174.056 84.242 174.079 84.0434 174.125C83.8448 174.171 83.6894 174.226 83.5771 174.29V179.502H81.6472V173.151Z" fill="#5C1033"/>
<path d="M92.4415 172.328C94.488 172.328 95.4983 173.741 95.4724 176.567H91.1463C91.3103 177.527 91.9191 178.007 92.9726 178.007C93.292 178.007 93.6029 177.961 93.9051 177.87C94.216 177.769 94.5441 177.641 94.8895 177.486V179.242C94.1815 179.553 93.387 179.708 92.5063 179.708C91.8414 179.708 91.2585 179.566 90.7577 179.283C90.2569 178.99 89.8683 178.574 89.592 178.035C89.3156 177.495 89.1775 176.859 89.1775 176.128C89.1775 174.921 89.4581 173.988 90.0194 173.329C90.5893 172.662 91.3967 172.328 92.4415 172.328ZM92.3638 173.892C91.673 173.892 91.2628 174.349 91.1333 175.264H93.5554C93.495 174.77 93.3698 174.418 93.1798 174.207C92.9985 173.997 92.7265 173.892 92.3638 173.892Z" fill="#5C1033"/>
<path d="M103.294 172.328C105.341 172.328 106.351 173.741 106.325 176.567H101.999C102.163 177.527 102.772 178.007 103.825 178.007C104.145 178.007 104.456 177.961 104.758 177.87C105.069 177.769 105.397 177.641 105.742 177.486V179.242C105.034 179.553 104.24 179.708 103.359 179.708C102.694 179.708 102.111 179.566 101.61 179.283C101.11 178.99 100.721 178.574 100.445 178.035C100.168 177.495 100.03 176.859 100.03 176.128C100.03 174.921 100.311 173.988 100.872 173.329C101.442 172.662 102.249 172.328 103.294 172.328ZM103.216 173.892C102.526 173.892 102.115 174.349 101.986 175.264H104.408C104.348 174.77 104.222 174.418 104.032 174.207C103.851 173.997 103.579 173.892 103.216 173.892Z" fill="#5C1033"/>
<path d="M109.621 179.708C109.207 179.708 108.844 179.662 108.533 179.571C108.223 179.489 107.877 179.365 107.497 179.201V177.404C108.197 177.961 108.931 178.24 109.699 178.24C109.993 178.24 110.204 178.19 110.334 178.089C110.472 177.98 110.541 177.833 110.541 177.651C110.541 177.44 110.433 177.285 110.217 177.184C110.001 177.084 109.656 176.974 109.181 176.855C108.68 176.745 108.266 176.526 107.938 176.196C107.618 175.867 107.458 175.387 107.458 174.756C107.458 174.216 107.588 173.773 107.847 173.425C108.106 173.078 108.43 172.826 108.818 172.671C109.216 172.506 109.626 172.424 110.049 172.424C110.567 172.424 110.986 172.474 111.305 172.575C111.633 172.666 111.953 172.813 112.264 173.014V174.619C111.823 174.363 111.482 174.18 111.24 174.07C110.999 173.96 110.718 173.906 110.399 173.906C110.079 173.906 109.842 173.96 109.686 174.07C109.531 174.171 109.453 174.317 109.453 174.509C109.453 174.738 109.539 174.907 109.712 175.017C109.885 175.117 110.161 175.222 110.541 175.332C110.973 175.451 111.314 175.57 111.564 175.689C111.815 175.799 112.039 175.995 112.238 176.279C112.436 176.553 112.536 176.942 112.536 177.445C112.518 178.231 112.238 178.807 111.694 179.173C111.15 179.53 110.459 179.708 109.621 179.708Z" fill="#5C1033"/>
<path d="M117.494 179.502V169.941H119.411V179.502H117.494Z" fill="#5C1033"/>
<path d="M123.974 172.355C124.691 172.355 125.343 172.534 125.93 172.89C126.517 173.238 126.811 173.869 126.811 174.784L126.798 178.062C126.789 178.638 126.517 179.059 125.982 179.324C125.446 179.58 124.665 179.708 123.637 179.708C121.72 179.708 120.762 178.917 120.762 177.335C120.762 176.667 120.956 176.146 121.345 175.771C121.742 175.396 122.329 175.209 123.106 175.209C123.426 175.209 123.745 175.254 124.065 175.346C124.384 175.428 124.661 175.538 124.894 175.675V175.236C124.894 174.441 124.41 174.043 123.443 174.043C123.072 174.043 122.688 174.116 122.29 174.262C121.902 174.399 121.591 174.569 121.358 174.77V172.959C121.591 172.794 121.945 172.653 122.42 172.534C122.903 172.415 123.422 172.355 123.974 172.355ZM123.702 178.268C124.151 178.268 124.462 178.236 124.635 178.172C124.807 178.108 124.894 177.98 124.894 177.788V176.718C124.592 176.608 124.259 176.553 123.896 176.553C123.473 176.553 123.162 176.622 122.964 176.759C122.774 176.887 122.679 177.093 122.679 177.376C122.679 177.641 122.778 177.856 122.977 178.021C123.184 178.186 123.426 178.268 123.702 178.268Z" fill="#5C1033"/>
<path d="M132.583 174.125H131.625V172.561H132.596V172.397C132.605 171.354 132.829 170.632 133.27 170.229C133.719 169.818 134.327 169.612 135.096 169.612C135.234 169.612 135.385 169.626 135.549 169.653C135.713 169.68 135.847 169.712 135.951 169.749V171.546C135.856 171.445 135.761 171.372 135.666 171.327C135.571 171.272 135.45 171.244 135.303 171.244C135.061 171.244 134.871 171.313 134.733 171.45C134.595 171.587 134.526 171.82 134.526 172.15V172.561H135.951V174.125H134.513V179.502H132.583V174.125Z" fill="#5C1033"/>
<path d="M140.064 172.355C140.78 172.355 141.432 172.534 142.019 172.89C142.607 173.238 142.9 173.869 142.9 174.784L142.887 178.062C142.879 178.638 142.607 179.059 142.071 179.324C141.536 179.58 140.754 179.708 139.727 179.708C137.81 179.708 136.851 178.917 136.851 177.335C136.851 176.667 137.046 176.146 137.434 175.771C137.831 175.396 138.419 175.209 139.196 175.209C139.515 175.209 139.835 175.254 140.154 175.346C140.474 175.428 140.75 175.538 140.983 175.675V175.236C140.983 174.441 140.5 174.043 139.532 174.043C139.161 174.043 138.777 174.116 138.38 174.262C137.991 174.399 137.68 174.569 137.447 174.77V172.959C137.68 172.794 138.034 172.653 138.509 172.534C138.993 172.415 139.511 172.355 140.064 172.355ZM139.792 178.268C140.241 178.268 140.551 178.236 140.724 178.172C140.897 178.108 140.983 177.98 140.983 177.788V176.718C140.681 176.608 140.348 176.553 139.986 176.553C139.563 176.553 139.252 176.622 139.053 176.759C138.863 176.887 138.768 177.093 138.768 177.376C138.768 177.641 138.868 177.856 139.066 178.021C139.273 178.186 139.515 178.268 139.792 178.268Z" fill="#5C1033"/>
<path d="M152.074 172.369C152.989 172.369 153.667 172.561 154.107 172.945C154.548 173.32 154.768 173.951 154.768 174.838V179.502H152.838V175.25C152.838 174.454 152.415 174.056 151.569 174.056C151.215 174.056 150.917 174.143 150.675 174.317C150.692 174.537 150.701 174.71 150.701 174.838V179.502H148.771V175.25C148.771 174.454 148.348 174.056 147.502 174.056C147.156 174.056 146.837 174.134 146.543 174.29V179.502H144.613V173.151C144.95 172.959 145.464 172.781 146.155 172.616C146.845 172.451 147.463 172.369 148.007 172.369C148.879 172.369 149.522 172.534 149.937 172.863C150.274 172.708 150.628 172.589 150.999 172.506C151.379 172.415 151.737 172.369 152.074 172.369Z" fill="#5C1033"/>
<path d="M156.478 170.037H158.473V171.615H156.478V170.037ZM156.517 172.657H158.447L158.46 179.502H156.517V172.657Z" fill="#5C1033"/>
<path d="M160.172 179.502V169.941H162.088V179.502H160.172Z" fill="#5C1033"/>
<path d="M163.789 170.037H165.784V171.615H163.789V170.037ZM163.828 172.657H165.758L165.771 179.502H163.828V172.657Z" fill="#5C1033"/>
<path d="M170.345 172.355C171.062 172.355 171.714 172.534 172.301 172.89C172.888 173.238 173.182 173.869 173.182 174.784L173.169 178.062C173.16 178.638 172.888 179.059 172.353 179.324C171.817 179.58 171.036 179.708 170.008 179.708C168.091 179.708 167.133 178.917 167.133 177.335C167.133 176.667 167.327 176.146 167.716 175.771C168.113 175.396 168.7 175.209 169.477 175.209C169.797 175.209 170.116 175.254 170.436 175.346C170.755 175.428 171.032 175.538 171.265 175.675V175.236C171.265 174.441 170.781 174.043 169.814 174.043C169.443 174.043 169.058 174.116 168.661 174.262C168.273 174.399 167.962 174.569 167.729 174.77V172.959C167.962 172.794 168.316 172.653 168.791 172.534C169.274 172.415 169.792 172.355 170.345 172.355ZM170.073 178.268C170.522 178.268 170.833 178.236 171.006 178.172C171.178 178.108 171.265 177.98 171.265 177.788V176.718C170.962 176.608 170.63 176.553 170.267 176.553C169.844 176.553 169.533 176.622 169.335 176.759C169.145 176.887 169.05 177.093 169.05 177.376C169.05 177.641 169.149 177.856 169.348 178.021C169.555 178.186 169.797 178.268 170.073 178.268Z" fill="#5C1033"/>
<path d="M30.9592 8.34048C29.4106 6.43151 27.3923 4.93929 24.9044 3.86382C22.4165 2.78835 19.7636 2.25061 16.9457 2.25061C12.2999 2.25061 8.33954 3.56806 5.06464 6.20297C1.68819 8.91854 0 12.2256 0 16.1242C0 20.0228 1.68819 23.3299 5.06464 26.0454C8.33954 28.6804 12.2999 29.9978 16.9457 29.9978C19.7636 29.9978 22.4165 29.4601 24.9044 28.3846C27.3923 27.3091 29.4106 25.8169 30.9592 23.9079C31.4162 23.3164 31.3908 22.7921 30.8831 22.3351C30.68 22.1469 30.4388 22.0528 30.1595 22.0528C29.8549 22.0528 29.6011 22.1737 29.398 22.4157C28.0017 24.0827 26.1992 25.4002 23.9906 26.3681C21.8073 27.3091 19.459 27.7796 16.9457 27.7796C12.8584 27.7796 9.36774 26.637 6.47364 24.3516C3.57954 22.0662 2.13249 19.3237 2.13249 16.1242C2.13249 12.9247 3.57954 10.1822 6.47364 7.89684C9.36774 5.61146 12.8584 4.46877 16.9457 4.46877C19.459 4.46877 21.8073 4.95274 23.9906 5.92066C26.1992 6.8617 28.0017 8.16571 29.398 9.83269C29.6011 10.0747 29.8549 10.1957 30.1595 10.1957C30.4388 10.1957 30.68 10.1016 30.8831 9.91335C31.3908 9.45628 31.4162 8.93199 30.9592 8.34048Z" fill="#5C1033"/>
<path d="M74.877 27.4973L54.3899 2.29095L34.55 27.4973C34.3977 27.6856 34.3215 27.9141 34.3215 28.183C34.3215 28.9627 34.6896 29.3525 35.4259 29.3525C35.7305 29.3525 35.9844 29.2181 36.1875 28.9492L42.2042 21.2865H67.0325L73.2777 28.9492C73.5061 29.2181 73.7854 29.3525 74.1154 29.3525C74.8009 29.3525 75.1436 28.9896 75.1436 28.2636C75.1436 27.9679 75.0548 27.7124 74.877 27.4973ZM43.994 19.028L54.4279 5.75935L65.2427 19.028H43.994Z" fill="#5F1133"/>
<path d="M108.943 2.89587H78.4786C77.7678 2.89587 77.4124 3.27229 77.4124 4.02512C77.4124 4.77795 77.7678 5.15437 78.4786 5.15437H92.6445V28.2233C92.6445 28.9761 92.9999 29.3525 93.7107 29.3525C94.4216 29.3525 94.777 28.9761 94.777 28.2233V5.15437H108.943C109.654 5.15437 110.009 4.77795 110.009 4.02512C110.009 3.27229 109.654 2.89587 108.943 2.89587Z" fill="#621234"/>
<path d="M123.804 21.1694C121.04 21.1694 119.125 21.5042 118.059 22.1737C116.993 22.8433 116.459 23.9854 116.459 25.6002C116.459 26.8868 116.856 27.9108 117.649 28.6723C118.455 29.4206 119.546 29.7947 120.922 29.7947C122.819 29.7947 124.337 29.0858 125.478 27.6679C126.63 26.237 127.207 24.3399 127.207 21.9768V21.1694H123.804ZM130.628 19.6728V32.2563H127.207V28.9086C126.426 30.2477 125.453 31.2388 124.287 31.8821C123.122 32.5123 121.697 32.8274 120.011 32.8274C117.879 32.8274 116.181 32.1972 114.916 30.9369C113.664 29.6634 113.038 27.9633 113.038 25.8365C113.038 23.3553 113.819 21.4845 115.381 20.2242C116.955 18.9639 119.298 18.3337 122.41 18.3337H127.207V17.9792C127.207 16.3119 126.686 15.0254 125.645 14.1195C124.616 13.2005 123.166 12.741 121.294 12.741C120.104 12.741 118.945 12.892 117.817 13.194C116.689 13.4959 115.604 13.9488 114.563 14.5527V11.205C115.815 10.693 117.03 10.3123 118.207 10.0629C119.385 9.80029 120.532 9.66901 121.647 9.66901C124.659 9.66901 126.909 10.4961 128.397 12.1503C129.884 13.8044 130.628 16.3119 130.628 19.6728ZM124.38 0H128.081L122.019 7.40437H119.174L124.38 0Z" fill="#641334"/>
<path d="M167.463 27.336H138.065V4.26713C138.065 3.51429 137.71 3.13788 136.999 3.13788C136.288 3.13788 135.933 3.51429 135.933 4.26713V29.5541H167.463C168.174 29.5541 168.53 29.1912 168.53 28.4652C168.53 27.7124 168.174 27.336 167.463 27.336Z" fill="#671435"/>
<path d="M187.668 2.45227C183.048 2.45227 179.088 3.78317 175.787 6.44496C172.411 9.16052 170.723 12.4676 170.723 16.3662C170.723 20.2648 172.411 23.5718 175.787 26.2874C179.062 28.9223 183.023 30.2398 187.668 30.2398C192.314 30.2398 196.262 28.9223 199.511 26.2874C202.888 23.545 204.576 20.2379 204.576 16.3662C204.576 12.4945 202.888 9.18741 199.511 6.44496C196.211 3.78317 192.264 2.45227 187.668 2.45227ZM202.482 16.3662C202.482 19.5657 201.035 22.3082 198.141 24.5935C195.246 26.852 191.756 27.9813 187.668 27.9813C183.581 27.9813 180.091 26.852 177.196 24.5935C174.302 22.3082 172.855 19.5657 172.855 16.3662C172.855 13.1398 174.302 10.3973 177.196 8.13883C180.091 5.85345 183.581 4.71076 187.668 4.71076C191.756 4.71076 195.246 5.85345 198.141 8.13883C201.035 10.3973 202.482 13.1398 202.482 16.3662Z" fill="#6A1535"/>
<path d="M223.786 19.27C223.075 19.27 222.72 19.6464 222.72 20.3992C222.72 21.1251 223.075 21.4881 223.786 21.4881H236.048V22.8593C234.651 24.4726 232.874 25.7362 230.716 26.6504C228.559 27.5376 226.248 27.9813 223.786 27.9813C219.699 27.9813 216.208 26.852 213.314 24.5935C210.42 22.3082 208.973 19.5657 208.973 16.3662C208.973 13.1398 210.42 10.3973 213.314 8.13883C216.208 5.85345 219.699 4.71076 223.786 4.71076C226.299 4.71076 228.647 5.18128 230.831 6.12232C233.039 7.06336 234.829 8.36736 236.2 10.0343C236.403 10.3032 236.67 10.4376 237 10.4376C237.71 10.4376 238.066 10.0612 238.066 9.3084C238.066 9.03954 237.977 8.79755 237.799 8.58246C236.2 6.6735 234.169 5.18128 231.706 4.10581C229.244 3.00345 226.604 2.45227 223.786 2.45227C219.165 2.45227 215.205 3.78317 211.905 6.44496C208.528 9.16052 206.84 12.4676 206.84 16.3662C206.84 20.2648 208.528 23.5718 211.905 26.2874C215.18 28.9223 219.14 30.2398 223.786 30.2398C228.635 30.2398 232.722 28.8013 236.048 25.9244V28.4652C236.048 29.1912 236.403 29.5542 237.114 29.5542C237.799 29.5542 238.142 29.1912 238.142 28.4652V19.27H223.786Z" fill="#6D1636"/>
<path d="M257.953 2.45227C253.333 2.45227 249.373 3.78317 246.072 6.44496C242.696 9.16052 241.008 12.4676 241.008 16.3662C241.008 20.2648 242.696 23.5718 246.072 26.2874C249.347 28.9223 253.308 30.2398 257.953 30.2398C262.599 30.2398 266.547 28.9223 269.796 26.2874C273.173 23.545 274.861 20.2379 274.861 16.3662C274.861 12.4945 273.173 9.18741 269.796 6.44496C266.496 3.78317 262.548 2.45227 257.953 2.45227ZM272.767 16.3662C272.767 19.5657 271.319 22.3082 268.425 24.5935C265.531 26.852 262.041 27.9813 257.953 27.9813C253.866 27.9813 250.375 26.852 247.481 24.5935C244.587 22.3082 243.14 19.5657 243.14 16.3662C243.14 13.1398 244.587 10.3973 247.481 8.13883C250.375 5.85345 253.866 4.71076 257.953 4.71076C262.041 4.71076 265.531 5.85345 268.425 8.13883C271.319 10.3973 272.767 13.1398 272.767 16.3662Z" fill="#701836"/>
<path d="M311.985 3.66215C310.614 3.1513 309.231 2.89587 307.834 2.89587H287.728V29.3525H307.834C309.231 29.3525 310.614 29.0971 311.985 28.5862C314.473 27.6721 316.479 26.0723 318.002 23.7869C319.55 21.4747 320.325 18.9204 320.325 16.1242C320.325 13.328 319.55 10.7872 318.002 8.50178C316.479 6.18951 314.473 4.5763 311.985 3.66215ZM311.3 26.4891C310.233 26.8924 309.078 27.094 307.834 27.094H289.86V5.15437H307.834C309.078 5.15437 310.233 5.35602 311.3 5.75932C313.356 6.53904 315.019 7.88338 316.288 9.79234C317.557 11.7013 318.192 13.8119 318.192 16.1242C318.192 18.4365 317.557 20.5471 316.288 22.456C315.019 24.365 313.356 25.7093 311.3 26.4891Z" fill="#721936"/>
<path d="M354.433 17.2534C355.144 17.2534 355.499 16.877 355.499 16.1242C355.499 15.3714 355.144 14.9949 354.433 14.9949H325.035V5.15437H354.433C355.144 5.15437 355.499 4.77795 355.499 4.02512C355.499 3.27229 355.144 2.89587 354.433 2.89587H322.902V29.3525H354.433C355.144 29.3525 355.499 28.9761 355.499 28.2233C355.499 27.4704 355.144 27.094 354.433 27.094H325.035V17.2534H354.433Z" fill="#751A37"/>
<path d="M31.5305 39.248C30.8196 39.248 30.4642 39.6244 30.4642 40.3773V62.3169L0 38.1188V64.5754C0 65.3013 0.355411 65.6643 1.06624 65.6643C1.77707 65.6643 2.1325 65.3013 2.1325 64.5754V42.5954L32.5967 66.7936V40.3773C32.5967 39.6244 32.2413 39.248 31.5305 39.248Z" fill="#781B37"/>
<path d="M51.9367 38.5624C47.3163 38.5624 43.3559 39.8933 40.0557 42.5551C36.6792 45.2706 34.991 48.5777 34.991 52.4763C34.991 56.3749 36.6792 59.682 40.0557 62.3975C43.3306 65.0324 47.2909 66.3499 51.9367 66.3499C56.5825 66.3499 60.5301 65.0324 63.7797 62.3975C67.1561 59.6551 68.8443 56.348 68.8443 52.4763C68.8443 48.6046 67.1561 45.2975 63.7797 42.5551C60.4794 39.8933 56.5317 38.5624 51.9367 38.5624ZM66.7499 52.4763C66.7499 55.6758 65.3029 58.4183 62.4088 60.7037C59.5147 62.9622 56.024 64.0914 51.9367 64.0914C47.8494 64.0914 44.3587 62.9622 41.4646 60.7037C38.5705 58.4183 37.1235 55.6758 37.1235 52.4763C37.1235 49.2499 38.5705 46.5074 41.4646 44.2489C44.3587 41.9636 47.8494 40.8209 51.9367 40.8209C56.024 40.8209 59.5147 41.9636 62.4088 44.2489C65.3029 46.5074 66.7499 49.2499 66.7499 52.4763Z" fill="#7B1C38"/>
<path d="M102.029 39.006H71.5653C70.8545 39.006 70.499 39.3824 70.499 40.1352C70.499 40.8881 70.8545 41.2645 71.5653 41.2645H85.7311V64.3334C85.7311 65.0862 86.0866 65.4626 86.7974 65.4626C87.5082 65.4626 87.8636 65.0862 87.8636 64.3334V41.2645H102.029C102.74 41.2645 103.096 40.8881 103.096 40.1352C103.096 39.3824 102.74 39.006 102.029 39.006Z" fill="#7E1D38"/>
<path d="M105.589 40.3772V64.5754C105.589 65.3013 105.932 65.6643 106.618 65.6643C107.328 65.6643 107.684 65.3013 107.684 64.5754V40.3772C107.684 39.6244 107.328 39.248 106.618 39.248C105.932 39.248 105.589 39.6244 105.589 40.3772Z" fill="#801E38"/>
<path d="M141.782 44.4506C140.234 42.5416 138.216 41.0494 135.728 39.9739C133.24 38.8985 130.587 38.3607 127.769 38.3607C123.123 38.3607 119.163 39.6782 115.888 42.3131C112.511 45.0286 110.823 48.3357 110.823 52.2343C110.823 56.1329 112.511 59.44 115.888 62.1555C119.163 64.7904 123.123 66.1079 127.769 66.1079C130.587 66.1079 133.24 65.5702 135.728 64.4947C138.216 63.4192 140.234 61.927 141.782 60.018C142.239 59.4265 142.214 58.9022 141.706 58.4452C141.503 58.257 141.262 58.1629 140.983 58.1629C140.678 58.1629 140.424 58.2838 140.221 58.5258C138.825 60.1928 137.022 61.5103 134.814 62.4782C132.63 63.4192 130.282 63.8897 127.769 63.8897C123.682 63.8897 120.191 62.7471 117.297 60.4617C114.403 58.1763 112.956 55.4338 112.956 52.2343C112.956 49.0348 114.403 46.2923 117.297 44.0069C120.191 41.7216 123.682 40.5789 127.769 40.5789C130.282 40.5789 132.63 41.0628 134.814 42.0308C137.022 42.9718 138.825 44.2758 140.221 45.9428C140.424 46.1848 140.678 46.3058 140.983 46.3058C141.262 46.3058 141.503 46.2117 141.706 46.0235C142.214 45.5664 142.239 45.0421 141.782 44.4506Z" fill="#831F39"/>
<path d="M145.678 40.3772V64.5754C145.678 65.3013 146.021 65.6643 146.706 65.6643C147.417 65.6643 147.772 65.3013 147.772 64.5754V40.3772C147.772 39.6244 147.417 39.248 146.706 39.248C146.021 39.248 145.678 39.6244 145.678 40.3772Z" fill="#862039"/>
<path d="M191.353 63.6074L170.866 38.4011L151.026 63.6074C150.873 63.7957 150.797 64.0242 150.797 64.2931C150.797 65.0728 151.165 65.4626 151.902 65.4626C152.206 65.4626 152.46 65.3282 152.663 65.0593L158.68 57.3966H183.508L189.753 65.0593C189.982 65.3282 190.261 65.4626 190.591 65.4626C191.277 65.4626 191.619 65.0997 191.619 64.3737C191.619 64.078 191.53 63.8225 191.353 63.6074ZM160.47 55.1381L170.904 41.8695L181.718 55.1381H160.47Z" fill="#89213A"/>
<path d="M194.726 56.2673C194.726 59.0367 196.3 61.3758 199.448 63.2848C202.596 65.1669 206.455 66.1079 211.024 66.1079C215.568 66.1079 219.275 65.5836 222.144 64.535C225.596 63.2713 227.323 61.4162 227.323 58.9695C227.323 56.4152 225.85 54.5735 222.905 53.4442C221.23 52.7989 217.968 52.1268 213.119 51.4277L209.349 50.8631C204.754 50.164 201.707 49.5456 200.209 49.0079C197.975 48.2013 196.858 47.0317 196.858 45.4992C196.858 44.0473 198.178 42.8643 200.819 41.9501C203.459 41.036 206.861 40.5789 211.024 40.5789C214.858 40.5789 218.171 41.3317 220.963 42.8374C223.781 44.343 225.19 46.131 225.19 48.2013C225.19 48.9541 225.545 49.3305 226.256 49.3305C226.967 49.3305 227.323 48.9541 227.323 48.2013C227.323 45.4319 225.749 43.1062 222.601 41.2242C219.453 39.3152 215.594 38.3607 211.024 38.3607C206.48 38.3607 202.773 38.885 199.905 39.9336C196.452 41.1973 194.726 43.0525 194.726 45.4992C194.726 48.0534 196.262 49.9086 199.334 51.0647C200.806 51.6025 204.056 52.2746 209.082 53.0812L210.872 53.3636L212.814 53.6459C217.46 54.318 220.544 54.9364 222.067 55.5011C224.149 56.2539 225.19 57.41 225.19 58.9695C225.19 60.4213 223.87 61.6044 221.23 62.5185C218.589 63.4327 215.188 63.8897 211.024 63.8897C207.191 63.8897 203.865 63.1369 201.047 61.6312C198.255 60.1256 196.858 58.3376 196.858 56.2673C196.858 55.5145 196.503 55.1381 195.792 55.1381C195.081 55.1381 194.726 55.5145 194.726 56.2673Z" fill="#8C223A"/>
<path d="M271.72 39.248C271.441 39.248 271.2 39.3555 270.996 39.5706L256.488 54.8961L242.017 39.5706C241.814 39.3555 241.56 39.248 241.256 39.248C240.57 39.248 240.228 39.6244 240.228 40.3772C240.228 40.673 240.329 40.9284 240.532 41.1435L255.422 56.9529V64.5754C255.422 65.3013 255.777 65.6643 256.488 65.6643C257.199 65.6643 257.554 65.3013 257.554 64.5754V56.9529L272.482 41.1435C272.685 40.9284 272.786 40.6595 272.786 40.3369C272.786 39.611 272.431 39.248 271.72 39.248Z" fill="#8E233B"/>
<path d="M23.9144 70.5483H0V95.8756C0 96.6285 0.355416 97.0049 1.06625 97.0049C1.77708 97.0049 2.1325 96.6285 2.1325 95.8756V88.9388H23.9144C26.3262 88.9388 28.3698 88.0381 30.0453 86.2367C31.7463 84.4353 32.5967 82.2709 32.5967 79.7436C32.5967 77.1893 31.7463 75.0249 30.0453 73.2504C28.3698 71.449 26.3262 70.5483 23.9144 70.5483ZM23.9144 86.6804H2.1325V72.8068H23.9144C25.7169 72.8068 27.2528 73.4924 28.5221 74.8636C29.8169 76.2079 30.4642 77.8346 30.4642 79.7436C30.4642 81.6525 29.8169 83.2926 28.5221 84.6638C27.2528 86.0082 25.7169 86.6804 23.9144 86.6804Z" fill="#91253B"/>
<path d="M67.9144 94.948L59.3844 88.9388H59.6891C62.1008 88.9388 64.1445 88.0381 65.82 86.2367C67.5209 84.4353 68.3714 82.2709 68.3714 79.7436C68.3714 77.1893 67.5209 75.0249 65.82 73.2504C64.1445 71.449 62.1008 70.5483 59.6891 70.5483H35.7747V95.8756C35.7747 96.6285 36.1301 97.0049 36.8409 97.0049C37.5517 97.0049 37.9072 96.6285 37.9072 95.8756V88.9388H55.5764L66.7339 96.8032C66.9116 96.9377 67.102 97.0049 67.3051 97.0049C67.6859 97.0049 67.9779 96.8301 68.181 96.4806C68.3079 96.2924 68.3714 96.0907 68.3714 95.8756C68.3714 95.4723 68.219 95.1631 67.9144 94.948ZM37.9072 72.8068H59.6891C61.4915 72.8068 63.0274 73.4924 64.2968 74.8636C65.5915 76.2079 66.2389 77.8346 66.2389 79.7436C66.2389 81.6525 65.5915 83.2926 64.2968 84.6638C63.0274 86.0082 61.4915 86.6804 59.6891 86.6804H37.9072V72.8068Z" fill="#94263B"/>
<path d="M87.9999 70.1047C83.3795 70.1047 79.4192 71.4356 76.1189 74.0974C72.7424 76.8129 71.0542 80.12 71.0542 84.0186C71.0542 87.9172 72.7424 91.2243 76.1189 93.9398C79.3938 96.5748 83.3541 97.8922 87.9999 97.8922C92.6457 97.8922 96.5934 96.5748 99.8429 93.9398C103.219 91.1974 104.908 87.8903 104.908 84.0186C104.908 80.1469 103.219 76.8398 99.8429 74.0974C96.5426 71.4356 92.5949 70.1047 87.9999 70.1047ZM102.813 84.0186C102.813 87.2181 101.366 89.9606 98.472 92.246C95.5779 94.5045 92.0872 95.6337 87.9999 95.6337C83.9126 95.6337 80.4219 94.5045 77.5278 92.246C74.6337 89.9606 73.1867 87.2181 73.1867 84.0186C73.1867 80.7922 74.6337 78.0497 77.5278 75.7912C80.4219 73.5059 83.9126 72.3632 87.9999 72.3632C92.0872 72.3632 95.5779 73.5059 98.472 75.7912C101.366 78.0497 102.813 80.7922 102.813 84.0186Z" fill="#97273C"/>
<path d="M131.238 70.5483H107.324V95.8756C107.324 96.6285 107.679 97.0049 108.39 97.0049C109.101 97.0049 109.456 96.6285 109.456 95.8756V88.9388H131.238C133.65 88.9388 135.694 88.0381 137.369 86.2367C139.07 84.4353 139.921 82.2709 139.921 79.7436C139.921 77.1893 139.07 75.0249 137.369 73.2504C135.694 71.449 133.65 70.5483 131.238 70.5483ZM131.238 86.6804H109.456V72.8068H131.238C133.041 72.8068 134.577 73.4924 135.846 74.8636C137.141 76.2079 137.788 77.8346 137.788 79.7436C137.788 81.6525 137.141 83.2926 135.846 84.6638C134.577 86.0082 133.041 86.6804 131.238 86.6804Z" fill="#9A283C"/>
<path d="M143.632 71.9195V87.5677C143.632 91.3318 145.485 94.1012 149.191 95.8757C151.984 97.22 155.563 97.8922 159.93 97.8922C164.322 97.8922 167.914 97.22 170.707 95.8757C174.388 94.1012 176.228 91.3318 176.228 87.5677V71.9195C176.228 71.1667 175.873 70.7903 175.162 70.7903C174.451 70.7903 174.096 71.1667 174.096 71.9195V87.5677C174.096 90.7403 172.268 92.9988 168.612 94.3431C166.251 95.2035 163.357 95.6337 159.93 95.6337C156.503 95.6337 153.609 95.2035 151.248 94.3431C147.592 92.9988 145.764 90.7403 145.764 87.5677V71.9195C145.764 71.1667 145.409 70.7903 144.698 70.7903C143.987 70.7903 143.632 71.1667 143.632 71.9195Z" fill="#9C293D"/>
<path d="M210.957 84.9058C211.668 84.9058 212.023 84.5294 212.023 83.7766C212.023 83.0238 211.668 82.6473 210.957 82.6473H181.559V72.8068H210.957C211.668 72.8068 212.023 72.4304 212.023 71.6775C212.023 70.9247 211.668 70.5483 210.957 70.5483H179.427V97.0049H210.957C211.668 97.0049 212.023 96.6285 212.023 95.8756C212.023 95.1228 211.668 94.7464 210.957 94.7464H181.559V84.9058H210.957Z" fill="#9F2A3D"/>
<path d="M215.096 87.8096C215.096 90.5789 216.67 92.9181 219.818 94.827C222.966 96.7091 226.825 97.6502 231.394 97.6502C235.938 97.6502 239.645 97.1259 242.514 96.0773C245.966 94.8136 247.693 92.9584 247.693 90.5117C247.693 87.9575 246.22 86.1157 243.275 84.9865C241.6 84.3412 238.337 83.669 233.489 82.97L229.719 82.4053C225.124 81.7063 222.077 81.0879 220.579 80.5501C218.345 79.7435 217.228 78.574 217.228 77.0414C217.228 75.5895 218.548 74.4065 221.189 73.4923C223.829 72.5782 227.231 72.1211 231.394 72.1211C235.228 72.1211 238.541 72.8739 241.333 74.3796C244.151 75.8853 245.56 77.6732 245.56 79.7435C245.56 80.4964 245.915 80.8728 246.626 80.8728C247.337 80.8728 247.693 80.4964 247.693 79.7435C247.693 76.9742 246.119 74.6485 242.971 72.7664C239.823 70.8574 235.964 69.903 231.394 69.903C226.85 69.903 223.143 70.4272 220.275 71.4758C216.822 72.7395 215.096 74.5947 215.096 77.0414C215.096 79.5957 216.632 81.4508 219.704 82.607C221.176 83.1447 224.425 83.8169 229.452 84.6235L231.242 84.9058L233.184 85.1881C237.83 85.8603 240.914 86.4787 242.437 87.0433C244.519 87.7961 245.56 88.9523 245.56 90.5117C245.56 91.9636 244.24 93.1466 241.6 94.0608C238.959 94.9749 235.558 95.432 231.394 95.432C227.561 95.432 224.235 94.6792 221.417 93.1735C218.625 91.6678 217.228 89.8799 217.228 87.8096C217.228 87.0568 216.873 86.6803 216.162 86.6803C215.451 86.6803 215.096 87.0568 215.096 87.8096Z" fill="#A22B3E"/>
<path d="M281.563 70.5483H251.099C250.388 70.5483 250.033 70.9247 250.033 71.6775C250.033 72.4304 250.388 72.8068 251.099 72.8068H265.265V95.8756C265.265 96.6285 265.62 97.0049 266.331 97.0049C267.042 97.0049 267.397 96.6285 267.397 95.8756V72.8068H281.563C282.274 72.8068 282.629 72.4304 282.629 71.6775C282.629 70.9247 282.274 70.5483 281.563 70.5483Z" fill="#A52C3E"/>
<path d="M325.145 95.1497L304.658 69.9434L284.818 95.1497C284.666 95.3379 284.59 95.5665 284.59 95.8354C284.59 96.6151 284.958 97.0049 285.694 97.0049C285.999 97.0049 286.253 96.8705 286.456 96.6016L292.472 88.9389H317.301L323.546 96.6016C323.774 96.8705 324.054 97.0049 324.384 97.0049C325.069 97.0049 325.412 96.642 325.412 95.916C325.412 95.6203 325.323 95.3648 325.145 95.1497ZM294.262 86.6804L304.696 73.4118L315.511 86.6804H294.262Z" fill="#A82D3E"/>
<path d="M328.518 87.8096C328.518 90.5789 330.092 92.9181 333.24 94.827C336.388 96.7091 340.247 97.6502 344.817 97.6502C349.361 97.6502 353.067 97.1259 355.936 96.0773C359.389 94.8136 361.115 92.9584 361.115 90.5117C361.115 87.9575 359.643 86.1157 356.698 84.9865C355.022 84.3412 351.76 83.669 346.911 82.97L343.141 82.4053C338.546 81.7063 335.5 81.0879 334.002 80.5501C331.768 79.7435 330.651 78.574 330.651 77.0414C330.651 75.5895 331.971 74.4065 334.611 73.4923C337.252 72.5782 340.653 72.1211 344.817 72.1211C348.65 72.1211 351.963 72.8739 354.756 74.3796C357.574 75.8853 358.983 77.6732 358.983 79.7435C358.983 80.4964 359.338 80.8728 360.049 80.8728C360.76 80.8728 361.115 80.4964 361.115 79.7435C361.115 76.9742 359.541 74.6485 356.393 72.7664C353.245 70.8574 349.386 69.903 344.817 69.903C340.273 69.903 336.566 70.4272 333.697 71.4758C330.245 72.7395 328.518 74.5947 328.518 77.0414C328.518 79.5957 330.054 81.4508 333.126 82.607C334.599 83.1447 337.848 83.8169 342.875 84.6235L344.664 84.9058L346.607 85.1881C351.252 85.8603 354.337 86.4787 355.86 87.0433C357.942 87.7961 358.983 88.9523 358.983 90.5117C358.983 91.9636 357.662 93.1466 355.022 94.0608C352.382 94.9749 348.98 95.432 344.817 95.432C340.983 95.432 337.658 94.6792 334.84 93.1735C332.047 91.6678 330.651 89.8799 330.651 87.8096C330.651 87.0568 330.296 86.6803 329.585 86.6803C328.874 86.6803 328.518 87.0568 328.518 87.8096Z" fill="#AA2E3F"/>
<path d="M398.925 71.3146C397.554 70.8037 396.17 70.5483 394.774 70.5483H374.668V97.0049H394.774C396.17 97.0049 397.554 96.7495 398.925 96.2386C401.413 95.3245 403.418 93.7247 404.941 91.4393C406.49 89.1271 407.264 86.5728 407.264 83.7766C407.264 80.9804 406.49 78.4396 404.941 76.1542C403.418 73.8419 401.413 72.2287 398.925 71.3146ZM398.239 94.1414C397.173 94.5447 396.018 94.7464 394.774 94.7464H376.8V72.8068H394.774C396.018 72.8068 397.173 73.0084 398.239 73.4117C400.296 74.1914 401.958 75.5358 403.228 77.4447C404.497 79.3537 405.132 81.4643 405.132 83.7766C405.132 86.0888 404.497 88.1995 403.228 90.1084C401.958 92.0174 400.296 93.3617 398.239 94.1414Z" fill="#AD2F3F"/>
<path d="M441.372 84.9058C442.083 84.9058 442.439 84.5294 442.439 83.7766C442.439 83.0238 442.083 82.6473 441.372 82.6473H411.974V72.8068H441.372C442.083 72.8068 442.439 72.4304 442.439 71.6775C442.439 70.9247 442.083 70.5483 441.372 70.5483H409.842V97.0049H441.372C442.083 97.0049 442.439 96.6285 442.439 95.8756C442.439 95.1228 442.083 94.7464 441.372 94.7464H411.974V84.9058H441.372Z" fill="#B03040"/>
<path d="M40.5555 125.716L20.0683 100.51L0.228485 125.716C0.0761642 125.904 0 126.133 0 126.402C0 127.181 0.368084 127.571 1.1043 127.571C1.40894 127.571 1.66281 127.437 1.86591 127.168L7.88261 119.505H32.7109L38.9561 127.168C39.1846 127.437 39.4638 127.571 39.7939 127.571C40.4793 127.571 40.822 127.208 40.822 126.482C40.822 126.187 40.7332 125.931 40.5555 125.716ZM9.67237 117.247L20.1064 103.978L30.9212 117.247H9.67237Z" fill="#B33140"/>
<path d="M74.5833 106.559C73.0347 104.65 71.0164 103.158 68.5285 102.083C66.0406 101.007 63.3877 100.469 60.5697 100.469C55.9239 100.469 51.9636 101.787 48.6887 104.422C45.3122 107.137 43.624 110.444 43.624 114.343C43.624 118.241 45.3122 121.549 48.6887 124.264C51.9636 126.899 55.9239 128.217 60.5697 128.217C63.3877 128.217 66.0406 127.679 68.5285 126.603C71.0164 125.528 73.0347 124.036 74.5833 122.127C75.0402 121.535 75.0148 121.011 74.5071 120.554C74.304 120.366 74.0628 120.271 73.7836 120.271C73.4789 120.271 73.2251 120.392 73.022 120.634C71.6257 122.301 69.8232 123.619 67.6146 124.587C65.4313 125.528 63.083 125.998 60.5697 125.998C56.4824 125.998 52.9918 124.856 50.0977 122.57C47.2036 120.285 45.7565 117.542 45.7565 114.343C45.7565 111.143 47.2036 108.401 50.0977 106.116C52.9918 103.83 56.4824 102.687 60.5697 102.687C63.083 102.687 65.4313 103.171 67.6146 104.139C69.8232 105.08 71.6257 106.384 73.022 108.051C73.2251 108.293 73.4789 108.414 73.7836 108.414C74.0628 108.414 74.304 108.32 74.5071 108.132C75.0148 107.675 75.0402 107.151 74.5833 106.559Z" fill="#B63340"/>
<path d="M109.057 101.115H78.5929C77.882 101.115 77.5266 101.491 77.5266 102.244C77.5266 102.997 77.882 103.373 78.5929 103.373H92.7587V126.442C92.7587 127.195 93.1141 127.571 93.825 127.571C94.5358 127.571 94.8912 127.195 94.8912 126.442V103.373H109.057C109.768 103.373 110.123 102.997 110.123 102.244C110.123 101.491 109.768 101.115 109.057 101.115Z" fill="#B83441"/>
<path d="M112.617 102.486V126.684C112.617 127.41 112.96 127.773 113.645 127.773C114.356 127.773 114.711 127.41 114.711 126.684V102.486C114.711 101.733 114.356 101.357 113.645 101.357C112.96 101.357 112.617 101.733 112.617 102.486Z" fill="#BB3541"/>
<path d="M148.962 101.316C148.556 101.316 148.251 101.491 148.048 101.841L133.73 124.627L119.374 101.841C119.171 101.491 118.866 101.316 118.46 101.316C117.749 101.316 117.394 101.706 117.394 102.486C117.394 102.701 117.457 102.903 117.584 103.091L133.73 128.7L149.838 103.091C149.965 102.903 150.029 102.687 150.029 102.445C150.029 101.693 149.673 101.316 148.962 101.316Z" fill="#BE3642"/>
<path d="M152.705 102.486V126.684C152.705 127.41 153.048 127.773 153.734 127.773C154.444 127.773 154.8 127.41 154.8 126.684V102.486C154.8 101.733 154.444 101.357 153.734 101.357C153.048 101.357 152.705 101.733 152.705 102.486Z" fill="#C13742"/>
<path d="M182.463 101.881C181.092 101.37 179.708 101.115 178.312 101.115H158.206V127.571H178.312C179.708 127.571 181.092 127.316 182.463 126.805C184.951 125.891 186.956 124.291 188.48 122.006C190.028 119.693 190.802 117.139 190.802 114.343C190.802 111.547 190.028 109.006 188.48 106.72C186.956 104.408 184.951 102.795 182.463 101.881ZM181.777 124.708C180.711 125.111 179.556 125.313 178.312 125.313H160.338V103.373H178.312C179.556 103.373 180.711 103.575 181.777 103.978C183.834 104.758 185.497 106.102 186.766 108.011C188.035 109.92 188.67 112.031 188.67 114.343C188.67 116.655 188.035 118.766 186.766 120.675C185.497 122.584 183.834 123.928 181.777 124.708Z" fill="#C43843"/>
<path d="M233.783 125.716L213.296 100.51L193.456 125.716C193.304 125.904 193.228 126.133 193.228 126.402C193.228 127.181 193.596 127.571 194.332 127.571C194.637 127.571 194.89 127.437 195.094 127.168L201.11 119.505H225.938L232.184 127.168C232.412 127.437 232.691 127.571 233.021 127.571C233.707 127.571 234.05 127.208 234.05 126.482C234.05 126.187 233.961 125.931 233.783 125.716ZM202.9 117.247L213.334 103.978L224.149 117.247H202.9Z" fill="#C63943"/>
<path d="M261.375 101.881C260.004 101.37 258.621 101.115 257.224 101.115H237.118V127.571H257.224C258.621 127.571 260.004 127.316 261.375 126.805C263.863 125.891 265.869 124.291 267.392 122.006C268.94 119.693 269.715 117.139 269.715 114.343C269.715 111.547 268.94 109.006 267.392 106.72C265.869 104.408 263.863 102.795 261.375 101.881ZM260.69 124.708C259.623 125.111 258.468 125.313 257.224 125.313H239.251V103.373H257.224C258.468 103.373 259.623 103.575 260.69 103.978C262.746 104.758 264.409 106.102 265.678 108.011C266.948 109.92 267.582 112.031 267.582 114.343C267.582 116.655 266.948 118.766 265.678 120.675C264.409 122.584 262.746 123.928 260.69 124.708Z" fill="#C93A43"/>
<path d="M303.823 115.472C304.534 115.472 304.889 115.096 304.889 114.343C304.889 113.59 304.534 113.214 303.823 113.214H274.425V103.373H303.823C304.534 103.373 304.889 102.997 304.889 102.244C304.889 101.491 304.534 101.115 303.823 101.115H272.292V127.571H303.823C304.534 127.571 304.889 127.195 304.889 126.442C304.889 125.689 304.534 125.313 303.823 125.313H274.425V115.472H303.823Z" fill="#CC3B44"/>
<path d="M307.962 118.376C307.962 121.145 309.536 123.484 312.684 125.393C315.832 127.275 319.69 128.217 324.26 128.217C328.804 128.217 332.511 127.692 335.379 126.644C338.832 125.38 340.558 123.525 340.558 121.078C340.558 118.524 339.086 116.682 336.141 115.553C334.466 114.908 331.203 114.235 326.354 113.536L322.585 112.972C317.99 112.273 314.943 111.654 313.445 111.116C311.211 110.31 310.094 109.14 310.094 107.608C310.094 106.156 311.414 104.973 314.055 104.059C316.695 103.145 320.097 102.687 324.26 102.687C328.093 102.687 331.406 103.44 334.199 104.946C337.017 106.452 338.426 108.24 338.426 110.31C338.426 111.063 338.781 111.439 339.492 111.439C340.203 111.439 340.558 111.063 340.558 110.31C340.558 107.541 338.984 105.215 335.836 103.333C332.688 101.424 328.83 100.469 324.26 100.469C319.716 100.469 316.009 100.994 313.141 102.042C309.688 103.306 307.962 105.161 307.962 107.608C307.962 110.162 309.498 112.017 312.569 113.173C314.042 113.711 317.291 114.383 322.318 115.19L324.108 115.472L326.05 115.754C330.696 116.427 333.78 117.045 335.303 117.61C337.385 118.362 338.426 119.519 338.426 121.078C338.426 122.53 337.106 123.713 334.466 124.627C331.825 125.541 328.423 125.998 324.26 125.998C320.427 125.998 317.101 125.246 314.283 123.74C311.49 122.234 310.094 120.446 310.094 118.376C310.094 117.623 309.739 117.247 309.028 117.247C308.317 117.247 307.962 117.623 307.962 118.376Z" fill="#CF3C44"/>
<path d="M23.9144 131.636H0V156.964C0 157.717 0.355411 158.093 1.06624 158.093C1.77707 158.093 2.13249 157.717 2.13249 156.964V150.027H23.9144C26.3262 150.027 28.3698 149.126 30.0453 147.325C31.7462 145.524 32.5967 143.359 32.5967 140.832C32.5967 138.278 31.7462 136.113 30.0453 134.339C28.3698 132.537 26.3262 131.636 23.9144 131.636ZM23.9144 147.769H2.13249V133.895H23.9144C25.7169 133.895 27.2528 134.581 28.5221 135.952C29.8168 137.296 30.4642 138.923 30.4642 140.832C30.4642 142.741 29.8168 144.381 28.5221 145.752C27.2528 147.096 25.7169 147.769 23.9144 147.769Z" fill="#D23D45"/>
<path d="M75.9874 156.238L55.5002 131.031L35.6604 156.238C35.508 156.426 35.4319 156.655 35.4319 156.923C35.4319 157.703 35.8 158.093 36.5362 158.093C36.8409 158.093 37.0948 157.959 37.2979 157.69L43.3145 150.027H68.1428L74.388 157.69C74.6165 157.959 74.8958 158.093 75.2258 158.093C75.9113 158.093 76.254 157.73 76.254 157.004C76.254 156.708 76.1651 156.453 75.9874 156.238ZM45.1043 147.769L55.5383 134.5L66.3531 147.769H45.1043Z" fill="#D43E45"/>
<path d="M111.424 156.036L102.894 150.027H103.199C105.611 150.027 107.654 149.126 109.33 147.325C111.031 145.524 111.881 143.359 111.881 140.832C111.881 138.278 111.031 136.113 109.33 134.339C107.654 132.537 105.611 131.636 103.199 131.636H79.2844V156.964C79.2844 157.717 79.6398 158.093 80.3507 158.093C81.0615 158.093 81.4169 157.717 81.4169 156.964V150.027H99.0861L110.244 157.891C110.421 158.026 110.612 158.093 110.815 158.093C111.196 158.093 111.488 157.918 111.691 157.569C111.818 157.381 111.881 157.179 111.881 156.964C111.881 156.561 111.729 156.251 111.424 156.036ZM81.4169 133.895H103.199C105.001 133.895 106.537 134.581 107.807 135.952C109.101 137.296 109.749 138.923 109.749 140.832C109.749 142.741 109.101 144.381 107.807 145.752C106.537 147.096 105.001 147.769 103.199 147.769H81.4169V133.895Z" fill="#D74045"/>
<path d="M155.272 156.238L134.784 131.031L114.945 156.238C114.792 156.426 114.716 156.655 114.716 156.923C114.716 157.703 115.084 158.093 115.821 158.093C116.125 158.093 116.379 157.959 116.582 157.69L122.599 150.027H147.427L153.672 157.69C153.901 157.959 154.18 158.093 154.51 158.093C155.196 158.093 155.538 157.73 155.538 157.004C155.538 156.708 155.449 156.453 155.272 156.238ZM124.389 147.769L134.823 134.5L145.637 147.769H124.389Z" fill="#DA4146"/>
<path d="M200.321 145.994C201.032 145.994 201.387 145.618 201.387 144.865C201.387 144.112 201.032 143.736 200.321 143.736H170.923V133.895H200.321C201.032 133.895 201.387 133.519 201.387 132.766C201.387 132.013 201.032 131.636 200.321 131.636H168.791V158.093H200.321C201.032 158.093 201.387 157.717 201.387 156.964C201.387 156.211 201.032 155.835 200.321 155.835H170.923V145.994H200.321Z" fill="#DD4246"/>
<path d="M236.181 156.077H206.783V133.008C206.783 132.255 206.428 131.878 205.717 131.878C205.006 131.878 204.651 132.255 204.651 133.008V158.295H236.181C236.892 158.295 237.247 157.932 237.247 157.206C237.247 156.453 236.892 156.077 236.181 156.077Z" fill="#E04347"/>
<path d="M290.561 156.238L270.074 131.031L250.234 156.238C250.081 156.426 250.005 156.655 250.005 156.923C250.005 157.703 250.373 158.093 251.11 158.093C251.414 158.093 251.668 157.959 251.871 157.69L257.888 150.027H282.716L288.961 157.69C289.19 157.959 289.469 158.093 289.799 158.093C290.485 158.093 290.827 157.73 290.827 157.004C290.827 156.708 290.738 156.453 290.561 156.238ZM259.678 147.769L270.112 134.5L280.926 147.769H259.678Z" fill="#E24447"/>
<path d="M325.54 143.736H296.142V133.895H325.54C326.251 133.895 326.607 133.519 326.607 132.766C326.607 132.013 326.251 131.636 325.54 131.636H294.01V156.964C294.01 157.717 294.365 158.093 295.076 158.093C295.787 158.093 296.142 157.717 296.142 156.964V145.994H325.54C326.251 145.994 326.607 145.618 326.607 144.865C326.607 144.112 326.251 143.736 325.54 143.736Z" fill="#E54548"/>
<path d="M369.473 156.238L348.986 131.031L329.146 156.238C328.994 156.426 328.918 156.655 328.918 156.923C328.918 157.703 329.286 158.093 330.022 158.093C330.327 158.093 330.581 157.959 330.784 157.69L336.8 150.027H361.629L367.874 157.69C368.102 157.959 368.382 158.093 368.712 158.093C369.397 158.093 369.74 157.73 369.74 157.004C369.74 156.708 369.651 156.453 369.473 156.238ZM338.59 147.769L349.024 134.5L359.839 147.769H338.59Z" fill="#E84648"/>
</svg>
